<svg width="307" height="256" viewBox="0 0 307 256" fill="none" xmlns="http://www.w3.org/2000/svg">
<path d="M204.136 167.486C196.691 177.004 187.362 184.886 176.731 190.639L183.245 167.487L204.136 167.486Z" fill="#F15D2A"/>
<path d="M218.353 131.642C218.31 135.239 217.826 138.818 216.91 142.298H190.317L199.103 111.069C203.413 111.339 207.578 112.725 211.191 115.09C213.087 116.454 214.658 118.222 215.791 120.264C217.585 123.783 218.466 127.695 218.353 131.642Z" fill="#F15D2A"/>
<path d="M83.9093 224.644L75.087 256H0L8.8223 224.644H83.9093Z" fill="#FBAD18"/>
<path d="M133.198 49.3855L123.149 85.0861L115.897 110.871H83.2964L90.549 85.0861L94.5179 70.9863C94.5216 70.9419 94.5338 70.8985 94.554 70.8587C96.2135 64.9889 99.6672 59.7843 104.432 55.9728C109.197 52.1612 115.034 49.9333 121.129 49.6006C124.899 49.4037 128.941 49.3316 133.198 49.3855Z" fill="#FBAD18"/>
<path d="M168 221.687L158.528 255.35C154.688 255.781 150.827 255.998 146.964 255.999H75.0889L83.9112 224.643H146.964C154.077 224.608 161.153 223.614 168 221.687Z" fill="#F57E25"/>
<path d="M306.232 42.5341C306.202 50.4511 303.683 58.1585 299.033 64.5677C291.104 75.2192 279.281 82.3038 266.145 84.2753C265.315 84.4195 264.503 84.5277 263.674 84.6359C263.403 84.6719 263.131 84.6898 262.861 84.7258C262.266 84.7801 261.689 84.8535 261.093 84.8883C261.041 84.903 260.986 84.909 260.931 84.9061C275.4 104.794 279.297 131.732 271.594 159.102C263.412 186.389 246.787 210.383 224.108 227.637C205.228 242.749 182.529 252.342 158.528 255.35L168 221.687C201.015 212.599 232.083 183.732 241.391 150.61C246.623 132.002 244.386 115.017 235.095 102.756C227.949 93.6809 217.591 87.6917 206.157 86.024L215.25 53.6773C229.412 54.1821 244.098 54.3082 258.946 53.6052C265.771 52.9804 272.1 49.7732 276.638 44.6395C281.176 39.5058 283.581 32.8334 283.359 25.9868C283.138 19.1402 280.308 12.6367 275.448 7.80626C270.588 2.97581 264.065 0.183375 257.214 0C283.157 0.30635 304.301 17.6151 306.087 39.4869C306.19 40.4993 306.238 41.5165 306.232 42.5341Z" fill="#F15D2A"/>
<path d="M115.9 110.873L107.062 142.299H31.7227L40.5609 110.873H115.9Z" fill="#FBAD18"/>
<path d="M199.103 111.069L190.317 142.297H107.057L115.897 110.87H195.025C196.27 110.87 197.642 110.924 199.103 111.069Z" fill="#F57E25"/>
<path d="M183.245 167.486L176.731 190.638C167.625 195.77 157.396 198.587 146.945 198.842H91.1628L99.9848 167.486H183.245Z" fill="#F57E25"/>
<path d="M99.9894 167.49L91.1671 198.843H15.8279L24.647 167.49H99.9894Z" fill="#FBAD18"/>
<path d="M215.25 53.6772L206.157 86.0239C202.48 85.3932 198.756 85.0795 195.025 85.0864H123.15L133.199 49.3857C155.479 49.566 184.109 52.5581 215.25 53.6772Z" fill="#F57E25"/>
</svg>
